# xmcd CD database file
#
# Track frame offsets:
#	150
#	16706
#	33679
#	52834
#	69031
#	82873
#	97550
#	114030
#	126900
#	146045
#	159987
#	178067
#	198557
#	212866
#
# Disc length: 3184 seconds
#
# Revision: 0
# Processed by: cddbd v1.5.1PL2 Copyright (c) Steve Scherf et al.
# Submitted via: CDex 1.51
#
DISCID=a90c6e0e
DTITLE=Various Artist - The Songs Of Jimmie Rodgers, A Tribute
DYEAR=1997
DGENRE=Country
TTITLE0=Bono - Dreaming With Tears In My Eyes
TTITLE1=Alison Krauss and Union Station - Any Old Time
TTITLE2=Dickey Betts - Waiting For A Train
TTITLE3=Mary Chapin Carpenter - Somewhere Down Below The Mason Dixon Line
TTITLE4=David Ball - Miss The Mississippi And You
TTITLE5=Bob Dylan - My Blue Eyed Jane
TTITLE6=Willie Nelson - Peach Pickin' Time Down In Georgia
TTITLE7=Steve Earle and The V-Roys - In The Jailhouse Now
TTITLE8=Jerry Garcia, David Grisman and John Kahn - Blue Yodel # 9
TTITLE9=Iris DeMent - Hobo Bill's Last Ride
TTITLE10=John Mellencamp - Gambling Bar Room Blues
TTITLE11=Van Morrison - Mule Skinner Blues
TTITLE12=Aaron Neville - Why Should I Be Lonely
TTITLE13=Dwight Yoakam - T For Texas
EXTD=YEAR: 1997
EXTT0=
EXTT1=
EXTT2=
EXTT3=
EXTT4=
EXTT5=
EXTT6=
EXTT7=
EXTT8=
EXTT9=
EXTT10=
EXTT11=
EXTT12=
EXTT13=
PLAYORDER=
